<svg id="Layer_1" data-name="Layer 1" xmlns="http://www.w3.org/2000/svg" viewBox="0 0 586.15 238.01"><defs><style>.cls-1{fill:#332929;}.cls-2{fill:#302828;}.cls-3{fill:#e77328;}</style></defs><path class="cls-1" d="M35.28,143.23v70.92c0,7.85-5.85,14.22-13.08,14.22S9.12,222,9.12,214.15V143.23C9.12,135.38,15,129,22.2,129S35.28,135.38,35.28,143.23ZM9.33,105.76c0-7.73,5.76-14,12.87-14s12.88,6.26,12.88,14-5.77,14-12.88,14S9.33,113.49,9.33,105.76Z" transform="translate(-9.12 -27.25)"/><path class="cls-2" d="M139.64,43.67V213.46c0,7.86-5.86,14.22-13.09,14.22a12.78,12.78,0,0,1-10.61-5.92,42.11,42.11,0,0,1-21.51,5.92c-24.92,0-45.2-22-45.2-49.13s20.28-49.14,45.2-49.14a41.89,41.89,0,0,1,19,4.59V43.67c0-7.85,5.86-14.22,13.08-14.22S139.64,35.82,139.64,43.67ZM113.47,178.55c0-11.42-8.54-20.7-19-20.7s-19,9.28-19,20.7,8.54,20.7,19,20.7S113.47,190,113.47,178.55Z" transform="translate(-9.12 -27.25)"/><path class="cls-2" d="M235,191.05a15.11,15.11,0,0,1,.19,20.11c-10.16,11.27-21.94,16.74-36,16.74-16.67,0-32-9.9-39.93-25.84a52.94,52.94,0,0,1-5.48-23.51c0-27.22,20.37-49.36,45.41-49.36,16.87,0,32.25,10.08,40.14,26.3,3.28,6.74,1.09,15.09-5,18.94l-38.87,24.64a17.54,17.54,0,0,0,3.7.39c8.75,0,13.51-3.94,17.36-8.21A12.35,12.35,0,0,1,235,191.05Zm-54.94-15.14,26.38-16.72a17.78,17.78,0,0,0-7.29-1.56C189.39,157.63,181.28,165.62,180.09,175.91Z" transform="translate(-9.12 -27.25)"/><path class="cls-2" d="M341.5,178.77v34.91c0,7.85-5.85,14.22-13.08,14.22A12.77,12.77,0,0,1,317.81,222a42.21,42.21,0,0,1-21.51,5.92c-24.93,0-45.21-22-45.21-49.13s20.28-49.14,45.21-49.14S341.5,151.67,341.5,178.77Zm-26.16,0c0-11.42-8.54-20.7-19-20.7s-19,9.28-19,20.7,8.54,20.69,19,20.69S315.34,190.18,315.34,178.77Z" transform="translate(-9.12 -27.25)"/><path class="cls-2" d="M381.42,44.23v170c0,7.85-5.86,14.22-13.08,14.22s-13.08-6.37-13.08-14.22v-170c0-7.85,5.86-14.22,13.08-14.22S381.42,36.37,381.42,44.23Z" transform="translate(-9.12 -27.25)"/><path class="cls-2" d="M423.24,143.23v70.92c0,7.85-5.86,14.22-13.08,14.22s-13.08-6.37-13.08-14.22V143.23c0-7.85,5.85-14.22,13.08-14.22S423.24,135.38,423.24,143.23Z" transform="translate(-9.12 -27.25)"/><path class="cls-3" d="M397.08,251.53c.08-18.31,25.66-18.31,25.74,0C422.74,269.84,397.16,269.84,397.08,251.53Z" transform="translate(-9.12 -27.25)"/><path class="cls-2" d="M487.43,226.3a29.86,29.86,0,0,1-17.84,5.9A32.28,32.28,0,0,1,443,217.7a15.05,15.05,0,0,1,2.76-19.89c5.82-4.66,14-3.31,18.29,3,2,2.87,6.18,3.82,8.7,2a7.84,7.84,0,0,0,2-9.52,6.63,6.63,0,0,0-5.17-3.23h0c-10.71-.53-20.82-7-26.39-17-8.94-16-4.45-37.49,10-47.92s34.41-6.12,44.54,9.51c4.16,6.42,2.74,15.29-3.16,19.82s-14.07,3-18.23-3.44c-1.92-3-6.15-4-8.7-2.18a7.88,7.88,0,0,0-2.11,9.45,6.64,6.64,0,0,0,5.23,3.36h0c10.59.52,20.31,6.62,26,16.32C506.11,193.9,501.94,215.6,487.43,226.3Z" transform="translate(-9.12 -27.25)"/><path class="cls-2" d="M595.27,105.68c0,7.85-5.85,14.22-13.08,14.22H564.47v94.46c0,7.85-5.85,14.22-13.08,14.22s-13.08-6.37-13.08-14.22V119.9H520.59c-7.22,0-13.08-6.37-13.08-14.22s5.86-14.22,13.08-14.22h17.72v-50c0-7.85,5.86-14.22,13.08-14.22s13.08,6.37,13.08,14.22v50h17.72C589.42,91.46,595.27,97.83,595.27,105.68Z" transform="translate(-9.12 -27.25)"/><path class="cls-2" d="M445.23,256.1v6.42a2.61,2.61,0,0,1-4.73,1.53,9,9,0,1,1,4.73-7.95Zm-5.23,0a3.81,3.81,0,1,0-3.8,3.81A3.8,3.8,0,0,0,440,256.1Z" transform="translate(-9.12 -27.25)"/><path class="cls-2" d="M465.75,262.48a2.61,2.61,0,0,1-2.61,2.61H450.29a2.62,2.62,0,0,1-1.83-4.48l8.31-8.21h-6.48a2.61,2.61,0,0,1,0-5.22h12.85a2.61,2.61,0,0,1,1.83,4.47l-8.31,8.21h6.48A2.61,2.61,0,0,1,465.75,262.48Z" transform="translate(-9.12 -27.25)"/></svg>